<svg xmlns="http://www.w3.org/2000/svg" xmlns:xlink="http://www.w3.org/1999/xlink" width="499" height="418" viewBox="0 0 499 418">
  <defs>
    <linearGradient id="linear-gradient" x1="0.082" y1="0.124" x2="0.96" y2="0.894" gradientUnits="objectBoundingBox">
      <stop offset="0" stop-color="#ffbc00"/>
      <stop offset="1" stop-color="#f8fe00"/>
    </linearGradient>
    <linearGradient id="linear-gradient-2" x1="0.931" y1="0.163" x2="0" y2="0.857" gradientUnits="objectBoundingBox">
      <stop offset="0" stop-color="#fec200"/>
      <stop offset="1" stop-color="#f8f800"/>
    </linearGradient>
    <linearGradient id="linear-gradient-3" x1="0.971" y1="0.354" x2="0" y2="0.664" gradientUnits="objectBoundingBox">
      <stop offset="0" stop-color="#461845"/>
      <stop offset="1" stop-color="#8a3788"/>
    </linearGradient>
    <linearGradient id="linear-gradient-4" x1="0.968" y1="0.615" x2="0" y2="0.377" gradientUnits="objectBoundingBox">
      <stop offset="0" stop-color="#ff9e53"/>
      <stop offset="1" stop-color="#f76c2f"/>
    </linearGradient>
    <linearGradient id="linear-gradient-5" x1="0.976" y1="0.5" x2="0.019" y2="0.5" gradientUnits="objectBoundingBox">
      <stop offset="0" stop-color="#f7ff00"/>
      <stop offset="1" stop-color="#fa0"/>
    </linearGradient>
  </defs>
  <g id="Group_5" data-name="Group 5" transform="translate(-1272 -583)">
    <ellipse id="Ellipse_2" data-name="Ellipse 2" cx="249.5" cy="209" rx="249.5" ry="209" transform="translate(1272 583)" fill="#1abec9"/>
    <g id="Group_3" data-name="Group 3" transform="translate(571 310)">
      <path id="Path_8" data-name="Path 8" d="M95.315-97.324,219.43-48.379v21.362L81.093-84.88Z" transform="translate(726 647)" fill="url(#linear-gradient)"/>
      <path id="Path_9" data-name="Path 9" d="M-13.037-23.683,114.618-73.414l15.05,12.461L-13.037-3Z" transform="translate(964 623)" fill="url(#linear-gradient-2)"/>
      <g id="Group_2" data-name="Group 2">
        <path id="Path_3" data-name="Path 3" d="M0,0,162.573-65.054,161.862,63.3,0,128Z" transform="translate(951 475)" fill="url(#linear-gradient-3)"/>
        <path id="Path_4" data-name="Path 4" d="M87.056,29.343,212.443,85.966,5.988,82.089Z" transform="matrix(0.017, 1, -1, 0.017, 1194.561, 362.623)" fill="#461845"/>
      </g>
      <g id="Group_1" data-name="Group 1">
        <path id="Path_5" data-name="Path 5" d="M106.024-64.105,265,0l.429,128.152L106.471,63.3Z" transform="translate(680 475)" fill="url(#linear-gradient-4)"/>
        <path id="Path_6" data-name="Path 6" d="M84.5-2.416l80.623,50.144L-41,52.169Z" transform="matrix(0.017, -1, 1, 0.017, 735.599, 535.595)" fill="#f76c2f"/>
      </g>
      <path id="Path_7" data-name="Path 7" d="M76.21,83.717l145.027,61L74.716,207.955l-146.4-63.986Z" transform="translate(874 258)" fill="url(#linear-gradient-5)"/>
    </g>
    <path id="Path_10" data-name="Path 10" d="M8-20.482,20.715-8.219l-.291,155.806L3.851,132.645Z" transform="matrix(0.407, -0.914, 0.914, 0.407, 1463.762, 697.003)" fill="#f90"/>
    <path id="Path_11" data-name="Path 11" d="M.079-2.477,18.97-11.7-20.621,134.829l-17.29,8.258Z" transform="translate(1566.508 673.005) rotate(49)" fill="#f90"/>
    <path id="Path_12" data-name="Path 12" d="M1.093-10.185,17.4-3.837,16,31,.1,23.785Z" transform="translate(1428 760)" fill="rgba(213,128,0,0.84)"/>
    <path id="Path_13" data-name="Path 13" d="M0-1.081,17.221-7.854l-.539,32.169L0,34.772Z" transform="translate(1596.779 756)" fill="rgba(255,153,0,0.47)"/>
    <path id="VO" d="M23.339,30.638l4.26.575L15.947,84.6l-3.727-.845L.3,27.529l3.876.523,7.694,36.485q1.338,6.333,2.142,12.231.749-5.878,1.995-11.651ZM64.111,65.9q0,7.1-1.153,12.441t-3.448,8.9q-2.258,3.5-5.367,4.8t-7.056.4q-3.946-.9-6.969-3.482t-5.145-6.868q-2.1-4.239-3.165-9.805t-1.1-12.5q-.039-6.909.976-12.1T34.77,38.97q2.109-3.567,5.155-5.081t7.042-.98q3.973.53,7.11,2.988t5.417,6.824q2.3,4.416,3.462,10.223T64.111,65.9ZM34.973,60.628Q35,66.389,35.779,70.9t2.308,7.8q1.542,3.311,3.785,5.284t5.2,2.619q3.03.663,5.332-.359t3.867-3.722q1.584-2.734,2.375-7.1t.787-10.359q0-5.951-.8-10.6t-2.39-7.982q-1.579-3.3-3.895-5.178t-5.358-2.31q-3-.43-5.264.752t-3.788,3.979q-1.509,2.764-2.248,6.99T34.973,60.628Z" transform="translate(1445.801 783.098)" fill="#fff"/>
    <path id="LO" d="M5.632,89.339,6.1,34.633l4.621-.683-.471,48.732,16.879-3.536-.075,5.55ZM64.558,51.382q-.134,6.089-1.273,11.068t-3.291,8.883q-2.169,3.935-5.14,6.307t-6.761,3.2q-3.946.859-6.986-.235t-5.164-4.137q-2.155-3.087-3.188-7.889t-.938-11.3q.094-6.475,1.287-11.7t3.475-9.149q2.264-3.9,5.4-6.145t7.139-2.835q3.816-.56,6.738.77t4.958,4.551q2.007,3.177,2.941,7.823T64.558,51.382Zm-28.192,5.14q-.083,5.333.643,9.217t2.26,6.31q1.517,2.4,3.749,3.291t5.171.272q2.924-.616,5.145-2.406t3.75-4.764q1.521-2.957,2.333-7.025t.922-9.266q.109-5.167-.541-8.968t-2.061-6.245q-1.425-2.47-3.6-3.478T49.022,32.9q-2.989.46-5.3,2.2t-3.93,4.759q-1.629,3.034-2.487,7.2T36.365,56.522Z" transform="translate(1523.478 784.343)" fill="#fff"/>
  </g>
</svg>
